PathFileType	4	(X/Y/Z)	56_1_38_p0_0-109.trc
DataRate	CameraRate	NumFrames	NumMarkers	Units	OrigDataRate	OrigDataStartFrame	OrigNumFrames
38.0	38.0	6	27	m	38.0	68	110
Frame#	Time	RHip			RKnee			RAnkle			RBigToe			RSmallToe			RHeel			LHip			LKnee			LAnkle			LBigToe			LSmallToe			LHeel			Neck			Head			Nose			RShoulder			RElbow			RWrist			RThumb			RIndex			RPinky			LShoulder			LElbow			LWrist			LThumb			LIndex			LPinky			
		X1	Y1	Z1	X2	Y2	Z2	X3	Y3	Z3	X4	Y4	Z4	X5	Y5	Z5	X6	Y6	Z6	X7	Y7	Z7	X8	Y8	Z8	X9	Y9	Z9	X10	Y10	Z10	X11	Y11	Z11	X12	Y12	Z12	X13	Y13	Z13	X14	Y14	Z14	X15	Y15	Z15	X16	Y16	Z16	X17	Y17	Z17	X18	Y18	Z18	X19	Y19	Z19	X20	Y20	Z20	X21	Y21	Z21	X22	Y22	Z22	X23	Y23	Z23	X24	Y24	Z24	X25	Y25	Z25	X26	Y26	Z26	X27	Y27	Z27	
68	1.7894736842105263	0.42487666410233293	0.6614830970808182	0.26391683516148035	0.4262716089465729	0.811929252571087	0.6619598996214865	0.45828656927495875	1.0598243640596605	1.0651785389335078	0.38309664344004246	0.8306837481077861	1.1213540239662858	0.46950753653797067	0.920104074785334	1.1508427322366173	0.46606039297547924	1.1063180923935354	1.0974586845508292	0.24097817147721637	0.7661822090232946	0.24770737300455759	0.2881520366328263	0.938864862591606	0.6572546563639841	0.3226237078820788	1.1062037368319573	1.0361424864242448	0.24919380974177202	0.8993124936871592	1.1124267300516422	0.23095449457096992	0.9965498572329154	1.125984718797367	0.3562218514772446	1.1870735408684912	1.096035666499253	0.324319963426	0.5372853863770591	-0.2295941193428866	0.28946831360136466	0.35104035712772574	-0.43962127390358646	0.27082540229130986	0.3669437009556472	-0.2969887674232809	0.46721953145205947	0.4916202389813905	-0.12247725478880146	0.5508577673172524	0.6256074375216466	0.11537736115307662	0.5526505304830391	0.6731675578052578	0.37864158698050215	0.5032515134255251	0.6858893091358271	0.4840396470941531	0.5230962965386601	0.6998555487273617	0.5044104948595408	0.5629377177058252	0.7264556067594379	0.5007663581918358	0.17044629099585407	0.585320750076297	-0.16071700182997817	0.14774615692718948	0.7506712728805423	0.08222066202566021	0.15155988745930357	0.8329879515486125	0.32849046306191415	0.183966453556952	0.8191782713915875	0.43434287784487496	0.15988364862015167	0.8667075665233013	0.4570872516843797	0.13891121125455758	0.8623328911643331	0.43810431504041353
69	1.8157894736842106	0.4197154910008683	0.6600210312238122	0.2636671467941	0.42636831238371803	0.8121169036128453	0.6618890936799792	0.45821679357299766	1.0597096484103903	1.0652568480313693	0.3833701562178898	0.8310960362848471	1.1214929938410696	0.4698098105133634	0.9206733977436401	1.1509715463696606	0.46589517524849844	1.106101116586191	1.0974937473107154	0.24097955043625924	0.766148640314829	0.2477073947637277	0.2880991886017347	0.9389809468279677	0.6572798249608414	0.3224538178554898	1.1056519868030066	1.0401265289888335	0.2490602049871601	0.8992623565258093	1.1125605856916274	0.2309084246146842	0.9965108196041504	1.126109868025618	0.3562667654596919	1.1871908101700555	1.0961210290031784	0.3242550422795816	0.537225269628083	-0.22954813005008895	0.28954243806636715	0.3510697263165512	-0.43967560549635765	0.27084080098584	0.366962221116611	-0.2969446619792871	0.4671600283838486	0.49160357521204434	-0.12245022969601975	0.5508398498869395	0.6256058301038384	0.11540232095465713	0.5604478659842537	0.6839044446380176	0.3790928290121325	0.5073837966047148	0.6860180786645362	0.48069871000481545	0.5189074194024672	0.6900254199880579	0.5037680202699132	0.5631107273789528	0.7266053339069753	0.5008499623744567	0.1704544874253429	0.585355381967821	-0.16072575014940077	0.1477914500868154	0.7505479652413579	0.08216557014658105	0.1515348470869381	0.832801808466012	0.32848196821028475	0.1840995284868961	0.8194150386405792	0.4342826506514769	0.16010340034019135	0.8672126174729917	0.4570347990143711	0.14535752639147836	0.8747772611471731	0.43871338928729314
70	1.8421052631578947	0.41972766520034255	0.6600020214063337	0.2636653874072248	0.42630750206400864	0.8119885222630742	0.662219458435287	0.4582656939678278	1.0597791853768794	1.0651846728397323	0.3827338500659262	0.8305098914283839	1.1212732655155007	0.4693432834644073	0.9202148536309606	1.1509065255071114	0.4662570299765558	1.106633200558233	1.0977633964261209	0.24115273631987388	0.7645014432714952	0.24395721373253437	0.28034611367601053	0.9259793685396752	0.6556826708463758	0.3226999983034551	1.1064996573109218	1.0362621380059813	0.24943479947998237	0.8994947616398465	1.1123124878790402	0.23100865668836576	0.9965185320977175	1.1258336145670649	0.35656134505627396	1.1877909532526287	1.0961167653196615	0.3242867266167513	0.5373023093067169	-0.22958210813046856	0.289545568276956	0.3510954652213541	-0.4396757092291368	0.2708819818647642	0.3670180587763502	-0.29698459923608467	0.46716066622771146	0.4916649254217443	-0.12248617283063085	0.550878161962571	0.6257416595924379	0.11544421421341718	0.562857847935837	0.7008474183377873	0.3791895885496404	0.5075416861396125	0.6876263321829457	0.4806096581404055	0.5274094198163874	0.7013574521621249	0.5016350784818603	0.5632334049341013	0.7272532564765304	0.5008163567614545	0.17045901391927978	0.5853757751462425	-0.16075806336887605	0.1478212269144027	0.750500009046044	0.08218106130903816	0.15159958629823797	0.832906312069598	0.3284640966561997	0.1840154404256802	0.8192174917250774	0.43419133758862777	0.1604783805928065	0.8654956490234387	0.4539571230540858	0.14548216120377866	0.8749008522978212	0.4387122687331361
71	1.868421052631579	0.4197295455139198	0.6600097707984057	0.26365537978860937	0.4262879295023891	0.8118700713155194	0.6620939547115258	0.4599842052833706	1.0629344704941492	1.069864164842604	0.3825424426902764	0.8301752900745548	1.1212071970838893	0.4671067000241366	0.900433367357294	1.146461148141297	0.4662305137904391	1.1065700270391472	1.0977464969100381	0.24099791582167462	0.764588738231539	0.2478979310452953	0.28027513418565647	0.9260534411849426	0.6556403823768068	0.3225530972391644	1.105833283246363	1.0401527261987449	0.2493469189688499	0.8994054783634567	1.112334265863196	0.230909210962776	0.9964178810137676	1.125929058946376	0.3563775574515519	1.1874208459212525	1.0963804488172184	0.32430068656523303	0.5372728922701163	-0.22952168680106053	0.28956886754757505	0.3511452191842514	-0.4396715906496034	0.2708306549651773	0.3670213066121745	-0.29692043311631344	0.46797346047925675	0.49362346980734395	-0.1188665760587136	0.5508619877109989	0.6257560667537898	0.1154041202745291	0.562810478665777	0.700757544117216	0.37919478805065354	0.5076647806329996	0.6872652146926748	0.48065080712790786	0.5273341799810326	0.7009341641551757	0.5046508693763507	0.5632931222793834	0.7273698273268223	0.5009248103051731	0.1704729402851716	0.585368375095138	-0.16077606726846008	0.14790631512676206	0.7506733769398033	0.0821551350487306	0.15147384978218906	0.8328420638349794	0.328519961833962	0.1797755808999215	0.8189151830953766	0.43396147981282013	0.15579757478100695	0.8662714317134884	0.4537821968730476	0.1454340601641046	0.8747498074754316	0.4386703479004978
72	1.894736842105263	0.42491890660012405	0.6617215832254014	0.2639638826292335	0.4263928083769787	0.8119773862937201	0.6618861534167847	0.45821389781269833	1.0597174841125503	1.0652360824363396	0.38285309856535926	0.8302383113575507	1.1213056268797457	0.4692545171017472	0.9195268818664343	1.1508382002111046	0.4660615878815919	1.1065088440741975	1.0977609739237832	0.24069844033808704	0.7660049038197917	0.25180737306664597	0.2757432406866543	0.9253243346679806	0.6553280610144752	0.32256228697021255	1.1059755124147603	1.0401461810926016	0.24840604499470711	0.9020540731099033	1.1164942109525307	0.23093337387700935	0.9967770053359485	1.1260294374428204	0.3562465511312051	1.1874367814553664	1.0962046450828864	0.3243483602032075	0.5374333064965744	-0.22953091686702715	0.29649967232861507	0.3610381235436647	-0.43954529905433093	0.27092360908528884	0.36706535562089626	-0.2969386508315841	0.46723179530269243	0.49155104004105143	-0.12585596377841302	0.5507885592691688	0.6257101974492695	0.11535572133874472	0.5525329120317418	0.672991062008951	0.37853034467608826	0.5034656984535599	0.6864647588301914	0.48414809831612493	0.5188735491793542	0.6903127888877272	0.5037935357330514	0.5542158030833899	0.7159832036687628	0.49624236983135567	0.17047987493546884	0.5853204593429174	-0.16082451883866689	0.14785104091283433	0.7505450170938931	0.08218146106413676	0.1513434368939246	0.8326070419144034	0.3285180960869843	0.18390038764613797	0.818950008388401	0.43427174353155945	0.15974726659862154	0.8668044461997717	0.4570077173453243	0.13885194455574784	0.8622267515066129	0.4380258466926483
73	1.9210526315789473	0.42488622445729574	0.6617199089434734	0.26391200324219843	0.42656937322745936	0.8123748642128917	0.6577641994808501	0.45829352585155336	1.0598244064970739	1.0651360437668087	0.38316427451517016	0.830412204698149	1.1213284849056524	0.46973429460896815	0.9198906506012219	1.1508120319909756	0.4751530616748824	1.1206385649728365	1.101518588264473	0.24071008580366426	0.766099495756319	0.25181897384059604	0.28011580101266	0.9257254430936679	0.6554791987936822	0.32255869098599205	1.1059085793420258	1.0400330415005639	0.24853892590626983	0.9020180362513656	1.1164222705190794	0.23088321707254503	0.9965944714360022	1.1260374886342899	0.35632504655810365	1.187513267935286	1.0959904258014175	0.3243862333859374	0.5374862470332921	-0.2295813567027595	0.2964868571911892	0.36105339226715943	-0.43964734803090233	0.2709059822039917	0.36701634309158226	-0.29694582268597425	0.4681852159256026	0.49238741944703873	-0.12583970482364507	0.5507415201556191	0.6257418458294847	0.11539672294114389	0.5526403998866372	0.6733186881523838	0.37866547844074605	0.5032591682270087	0.6862917738061689	0.4840855831219927	0.5232960231623712	0.7001044842024512	0.504476397482117	0.5544062643307398	0.7163602546669232	0.4998734205688633	0.1704998168574241	0.5853761226969035	-0.16081393182454315	0.14788232405560414	0.7503816944309321	0.08216998769533317	0.1512541182057642	0.8323936260092473	0.32852598368361696	0.1837501883426901	0.8194146464743497	0.43433213893121575	0.1543861027027984	0.8844109744481171	0.46070664660539606	0.14516621234747426	0.87510794359885	0.4387515714411593
